<svg width="120" height="120" viewBox="0 0 120 120" fill="none" xmlns="http://www.w3.org/2000/svg">
<path d="M61.7292 59.1456C61.4792 58.1456 61.3333 57.3331 61.0625 56.5414C58.3542 48.5414 54 41.4164 49.0416 34.6456C48.4583 33.8539 47.7291 33.1039 46.9166 32.6039C46.4791 32.3331 45.6041 32.3747 45.1041 32.6456C44.7291 32.8539 44.4583 33.6664 44.5416 34.1247C44.6875 34.9997 45 35.8956 45.4375 36.6872C48.3125 41.9164 51.2083 47.1247 54.1458 52.3122C55.25 54.2497 56.4167 56.1664 57.5625 58.0831C57.9375 58.7289 58.3542 59.3539 58.7917 59.9372C59.2708 60.6039 60 60.9997 60.7292 60.5622C61.2083 60.2706 61.7292 60.0622 61.7292 59.1456Z" fill="#CD4631"/>
<path d="M32.2291 90.1672C33.2291 90.0005 34.3958 89.8755 35.5208 89.6255C39.9583 88.6255 44.3958 87.6255 48.8125 86.5838C49.7708 86.3547 50.7083 85.9588 51.5625 85.5005C52.7083 84.8963 53.1041 84.0422 52.9166 83.1047C52.7291 82.1672 51.9792 81.5838 50.6667 81.563C49.7708 81.5422 48.8125 81.563 47.9583 81.7713C42.3541 83.188 36.75 84.6463 31.1667 86.1255C30.5417 86.2922 29.8958 86.5838 29.4167 87.0005C28.2083 88.0213 28.5833 89.6255 30.125 90.0213C30.7292 90.1672 31.4166 90.1047 32.2291 90.1672Z" fill="#CD4631"/>
<path d="M90.7708 34.3124C90.6874 33.3332 90.4791 32.354 90.2291 31.3957C89.9999 30.5415 89.4166 29.9374 88.4791 29.854C87.6874 29.7915 86.8333 30.5832 86.7083 31.6249C86.5416 33.0207 86.3958 34.4374 86.4583 35.8332C86.6458 40.0415 86.9166 44.2707 87.2083 48.479C87.3124 49.8749 87.4999 51.2707 87.7291 52.6665C87.8124 53.1457 87.9791 53.6457 88.2499 54.0207C88.9791 55.0832 90.3124 54.9999 90.8333 53.854C91.1249 53.2082 91.2499 52.4165 91.2499 51.7082C91.3541 49.3749 91.0416 37.7707 90.7708 34.3124Z" fill="#CD4631"/>
</svg>
